Coordinates
version=1
nRows=10
nColumns=63
inDegrees=yes

Units are S.I. units (second, meters, Newtons, ...)
If the header above contains a line with 'inDegrees', this indicates whether rotational values are in degrees (yes) or radians (no).

endheader
time	pelvis_tilt	pelvis_list	pelvis_rotation	pelvis_tx	pelvis_ty	pelvis_tz	hip_flexion_r	hip_adduction_r	hip_rotation_r	knee_angle_r	knee_angle_r_beta	ankle_angle_r	subtalar_angle_r	mtp_angle_r	hip_flexion_l	hip_adduction_l	hip_rotation_l	knee_angle_l	knee_angle_l_beta	ankle_angle_l	subtalar_angle_l	mtp_angle_l	L5_S1_Flex_Ext	L5_S1_Lat_Bending	L5_S1_axial_rotation	L4_L5_Flex_Ext	L4_L5_Lat_Bending	L4_L5_axial_rotation	L3_L4_Flex_Ext	L3_L4_Lat_Bending	L3_L4_axial_rotation	L2_L3_Flex_Ext	L2_L3_Lat_Bending	L2_L3_axial_rotation	L1_L2_Flex_Ext	L1_L2_Lat_Bending	L1_L2_axial_rotation	L1_T12_Flex_Ext	L1_T12_Lat_Bending	L1_T12_axial_rotation	Abs_r3	Abs_r2	Abs_r1	Abs_t1	Abs_t2	neck_flexion	neck_bending	neck_rotation	arm_flex_r	arm_add_r	arm_rot_r	elbow_flex_r	pro_sup_r	wrist_flex_r	wrist_dev_r	arm_flex_l	arm_add_l	arm_rot_l	elbow_flex_l	pro_sup_l	wrist_flex_l	wrist_dev_l
      1.86440678	     -0.96177711	     -0.67399155	     99.57235260	      0.13646149	      0.69442921	      0.76870223	     -4.77059059	     -3.89947308	     -5.04004418	      3.17641307	      0.05543887	     25.94456339	      3.48580456	      0.00000000	     -1.59306338	      4.43464598	     14.17397181	      0.54024191	      0.00942900	     27.28933074	    -11.06012133	      0.00000000	      0.16131397	     -0.68493849	     -0.84088213	      0.29957617	     -0.91096820	     -0.89343726	      0.26502272	     -1.66535946	     -0.89343726	      0.18436573	     -1.66535946	     -0.73577186	      0.14979615	     -1.39672658	     -0.68321673	      0.09217480	     -1.06096973	     -0.63066159	      1.15224954	     -7.74816124	     -4.67673412	      0.00000000	      0.00000000	      1.64655887	      8.86345340	     -0.03772144	    109.05144380	   -103.86798947	    151.61990839	     11.38536861	      8.18234795	     -9.76575247	     10.40274634	   -106.73511411	    -82.49469688	      7.63351390	      1.00856632	     70.58514443	    -19.09787605	     19.74129353
      1.88135593	     -0.93933947	     -0.70930663	     99.45317429	      0.13646886	      0.69400164	      0.76891968	     -4.67488539	     -3.90627842	     -5.04355210	      3.11312566	      0.05433429	     26.35629045	      3.53647793	      0.00000000	     -1.53841360	      4.43766484	     14.13233299	      0.54470308	      0.00950686	     27.43422880	    -11.11138877	      0.00000000	      0.17367137	     -0.68191896	     -0.82066705	      0.32252511	     -0.90695222	     -0.87195874	      0.28532470	     -1.65801776	     -0.87195874	      0.19848901	     -1.65801776	     -0.71808366	      0.16127124	     -1.39056915	     -0.66679197	      0.09923582	     -1.05629247	     -0.61550028	      1.24051726	     -7.71400367	     -4.56430390	      0.00000000	      0.00000000	      2.50597224	      8.80501198	     -0.10041749	    108.93018334	   -103.82928269	    151.74644803	     11.29094507	      8.29367005	     -9.87003343	     10.46267782	   -106.84731537	    -82.41226861	      7.78555011	      1.07125469	     70.78232146	    -19.11571003	     19.61637348
      1.89830508	     -0.95728514	     -0.70594601	     99.11990418	      0.13684548	      0.69371224	      0.76949170	     -4.48258679	     -3.97884046	     -5.07111718	      3.20815723	      0.05599291	     26.77476381	      3.80877377	      0.00000000	     -1.50960213	      4.47200953	     14.01467053	      0.55127777	      0.00962161	     27.58173463	    -11.17772499	      0.00000000	      0.17039210	     -0.68546994	     -0.75065379	      0.31643518	     -0.91167501	     -0.79756965	      0.27993719	     -1.66665160	     -0.79756965	      0.19474114	     -1.66665160	     -0.65682206	      0.15822611	     -1.39781029	     -0.60990620	      0.09736205	     -1.06179293	     -0.56299034	      1.21709376	     -7.75417300	     -4.17491116	      0.00000000	      0.00000000	      3.46350887	      8.74505519	     -0.54373463	    108.69878799	   -103.83120448	    152.10578442	     11.32122955	      8.57705214	     -9.93745182	     10.51713311	   -106.82549337	    -82.29026776	      7.93599861	      1.09362268	     70.93459561	    -18.76953272	     19.22059193
      1.91525424	     -0.96152999	     -0.70420545	     98.54381715	      0.13734809	      0.69363808	      0.77013430	     -4.17707451	     -4.08872245	     -5.32583410	      3.44061047	      0.06004998	     27.22906315	      4.66316251	      0.00000000	     -1.47968037	      4.52233915	     13.56102482	      0.54368767	      0.00948914	     27.71371645	    -11.27448612	      0.00000000	      0.16966902	     -0.68305739	     -0.61955136	      0.31509233	     -0.90846632	     -0.65827332	      0.27874923	     -1.66078573	     -0.65827332	      0.19391472	     -1.66078573	     -0.54210744	      0.15755465	     -1.39289062	     -0.50338548	      0.09694888	     -1.05805589	     -0.46466352	      1.21192882	     -7.72688176	     -3.44575878	      0.00000000	      0.00000000	      3.81674296	      8.46862174	     -1.10021271	    108.54109048	   -103.87549509	    152.67518853	     11.14973521	      8.89464120	     -9.82777628	     10.49750517	   -105.76797640	    -82.28304188	      7.19295187	      1.00552814	     69.94628796	    -17.50060837	     18.21506332
      1.93220339	     -0.95237603	     -0.69655729	     98.57851549	      0.13727468	      0.69364403	      0.77048755	     -4.14747149	     -4.08656640	     -5.34733269	      3.42428800	      0.05976510	     27.26604097	      4.65704411	      0.00000000	     -1.45106436	      4.52210917	     13.58454965	      0.55473262	      0.00968191	     27.76059723	    -11.26564551	      0.00000000	      0.16390388	     -0.68628023	     -0.60407083	      0.30438589	     -0.91275270	     -0.64182526	      0.26927768	     -1.66862174	     -0.64182526	      0.18732574	     -1.66862174	     -0.52856197	      0.15220114	     -1.39946264	     -0.49080755	      0.09365468	     -1.06304807	     -0.45305312	      1.17074901	     -7.76333918	     -3.35966073	      0.00000000	      0.00000000	      3.78844722	      8.46909587	     -1.10710845	    108.54070267	   -104.01677305	    152.69012012	     11.15251021	      8.89407331	     -9.82560003	     10.51720444	   -105.71364781	    -82.12233413	      7.16556026	      1.11779283	     69.91054359	    -17.46452555	     18.18750695
      1.94915254	     -1.07046174	     -0.83516076	     97.97755590	      0.13795231	      0.69361294	      0.77125645	     -3.59447833	     -4.46980662	     -8.58922952	      4.00299524	      0.06986545	     28.18298921	      9.73306633	      0.00000000	     -1.26878474	      4.67707941	     12.14885697	      0.56079755	      0.00978776	     28.41402810	     -9.61419742	      0.00000000	      0.17298599	     -0.69637178	     -0.50995729	      0.32125228	     -0.92617446	     -0.54182962	      0.28419868	     -1.69315834	     -0.54182962	      0.19770569	     -1.69315834	     -0.44621263	      0.16063479	     -1.42004133	     -0.41434030	      0.09884419	     -1.07867988	     -0.38246797	      1.23562162	     -7.87749680	     -2.83622947	      0.00000000	      0.00000000	      3.51423903	      8.21947452	     -0.90578910	    109.20015540	   -103.90936927	    152.97615270	     10.98705683	      8.70319396	     -9.69907935	     10.88000737	   -104.69771272	    -80.83520843	     -2.04669604	      1.39741482	     34.61335736	    -18.50163858	      7.36988678
      1.96610169	     -0.85437690	     -0.85432466	     97.57552178	      0.13751219	      0.69375662	      0.77207511	     -3.35729079	     -4.35236705	     -8.00247674	      4.19723686	      0.07325560	     27.80682919	      9.55321609	      0.00000000	     -1.17532927	      4.52634884	     11.69826689	      0.55159047	      0.00962707	     28.48111325	     -9.44334593	      0.00000000	      0.16854046	     -0.64914913	     -0.44827827	      0.31299650	     -0.86336835	     -0.47629566	      0.27689513	     -1.57834120	     -0.47629566	      0.19262490	     -1.57834120	     -0.39224348	      0.15650667	     -1.32374491	     -0.36422609	      0.09630402	     -1.00553201	     -0.33620870	      1.20386768	     -7.34330483	     -2.49318924	      0.00000000	      0.00000000	      2.97889895	      7.60909294	     -0.06130167	    108.10370529	   -103.70880132	    151.85142678	     10.96675053	      7.73103267	     -9.65148082	     11.35912625	    -99.87496903	    -80.27283405	     -8.41325447	      1.80037659	     25.81639113	    -17.06430407	      2.76875522
      1.98305085	     -0.95895605	     -0.95425279	     97.29362350	      0.13794418	      0.69363058	      0.77252097	     -3.14526588	     -4.47532588	     -6.72591662	      4.37726089	      0.07639761	     27.34150199	      8.33638484	      0.00000000	     -1.04715358	      4.65548645	     10.95266963	      0.57153421	      0.00997515	     28.53912877	     -8.87785065	      0.00000000	      0.17180198	     -0.66470922	     -0.41179772	      0.31905346	     -0.88406327	     -0.43753508	      0.28225348	     -1.61617400	     -0.43753508	      0.19635249	     -1.61617400	     -0.36032300	      0.15953532	     -1.35547505	     -0.33458565	      0.09816765	     -1.02963458	     -0.30884829	      1.22716439	     -7.51932366	     -2.29029538	      0.00000000	      0.00000000	      2.50348045	      7.62875791	      0.30483558	    107.97427350	   -103.93472786	    148.66772672	     11.63114326	      7.63081559	    -10.20251602	     12.03403457	   -101.54497300	    -79.84386962	    -12.76370924	      2.83439372	     15.09566149	    -15.04429737	      0.87253070
      2.00000000	     -0.89705615	     -0.98667024	     96.94611791	      0.13797696	      0.69374483	      0.77326042	     -2.93283809	     -4.47039677	     -5.93889206	      4.61127597	      0.08048195	     26.79418573	      7.83626268	      0.00000000	     -0.96206999	      4.63781707	     10.46825217	      0.58101252	      0.01014058	     28.29306180	     -8.89348559	      0.00000000	      0.16377551	     -0.65100889	     -0.41791387	      0.30414750	     -0.86584182	     -0.44403348	      0.26906678	     -1.58286301	     -0.44403348	      0.18717903	     -1.58286301	     -0.36567463	      0.15208194	     -1.32753732	     -0.33955502	      0.09358133	     -1.00841277	     -0.31343540	      1.16983207	     -7.36434273	     -2.32431155	      0.00000000	      0.00000000	      2.06173355	      7.49732962	      1.09683656	    108.77368684	   -103.59039492	    147.21556687	     11.68872708	      7.18509672	    -10.43176529	     12.74061446	   -100.50196521	    -79.19812679	    -14.78534873	      3.15226510	     13.66811607	    -13.78698716	      0.39381222
      2.01694915	     -0.88441962	     -1.02591981	     96.61509963	      0.13811910	      0.69378127	      0.77383252	     -2.73521348	     -4.49850218	     -5.04001339	      4.82254240	      0.08416924	     26.29920155	      7.18920139	      0.00000000	     -0.87861679	      4.64611822	      8.41683955	      0.60680252	      0.01059070	     28.48310762	     -6.64387186	      0.00000000	      0.15998788	     -0.64746087	     -0.42840854	      0.29711350	     -0.86112295	     -0.45518408	      0.26284409	     -1.57423635	     -0.45518408	      0.18285015	     -1.57423635	     -0.37485748	      0.14856475	     -1.32030220	     -0.34808194	      0.09141708	     -1.00291688	     -0.32130641	      1.14277746	     -7.32420681	     -2.38267980	      0.00000000	      0.00000000	      1.68163925	      7.54106905	      1.75680841	    109.89214553	   -103.51051822	    142.99471248	     12.18417061	      8.03129073	    -11.11480665	     13.50413005	   -101.41240067	    -78.60028046	    -17.79956134	      3.69599614	     15.93286509	    -13.15871706	      0.88910683
